<svg width="218" height="226" viewBox="0 0 218 226" fill="none" xmlns="http://www.w3.org/2000/svg">
<rect width="218" height="226" fill="#1E1E1E"/>
<rect width="218" height="226" fill="white"/>
<path d="M191.6 209.4C188.2 209.4 186.5 207.7 186.5 204.3C186.5 202.1 187.1 199.7 188.3 197.1C189.5 194.7 190 193.5 189.8 193.5C189.8 193.3 189.8 193.1 189.8 192.9C190 192.9 190.1 192.8 190.1 192.6C190.1 191.4 188.9 189.8 186.5 187.8C182.3 184 176.9 181.5 170.3 180.3C163.9 179.1 156.7 178.1 148.7 177.3C147.3 177.1 146 177 144.8 177C143.6 177 142.3 177 140.9 177C132.3 177 123.4 178.1 114.2 180.3C105 182.5 95.8 185.3 86.6 188.7C87.4 189.7 88 190.7 88.4 191.7C89 192.7 89.3 193.7 89.3 194.7C89.3 196.5 88.3 198 86.3 199.2C84.9 200.2 83.2 200.7 81.2 200.7C79.4 200.7 77.5 200.3 75.5 199.5C73.7 198.7 72.1 197.4 70.7 195.6C68.1 196.8 65.5 198 62.9 199.2C60.3 200.6 57.8 202 55.4 203.4V203.7C55.2 203.9 54.9 204 54.5 204C53.7 204 53 203.3 52.4 201.9C51.8 200.7 51.5 199.4 51.5 198C51.5 196.6 51.8 195.3 52.4 194.1C52.8 192.9 53.7 192 55.1 191.4C57.5 190.4 59.8 189.5 62 188.7C64.2 187.7 66.3 186.8 68.3 186L68 185.1C68.4 179.7 69.7 172.7 71.9 164.1C74.3 155.5 77.3 145.9 80.9 135.3C84.7 124.5 88.8 113.5 93.2 102.3C97.6 90.9 102 79.9 106.4 69.3C111 58.5 115.3 48.8 119.3 40.2C123.3 31.4 126.7 24.3 129.5 18.9C131.3 15.7 133.8 14.1 137 14.1C138.8 14.1 140.4 14.8 141.8 16.2C143.2 17.4 143.9 19.2 143.9 21.6C143.9 22.4 143.6 24.1 143 26.7C142.6 29.3 141.9 32 140.9 34.8C140.1 37.6 139.2 39.9 138.2 41.7C136.2 44.9 133.8 48.2 131 51.6C128.2 55 125.7 59 123.5 63.6C118.7 73.8 113.9 84.5 109.1 95.7C104.5 106.9 100.2 118 96.2 129C92.4 139.8 89.2 149.6 86.6 158.4C84.2 167.2 82.7 174.3 82.1 179.7C86.1 177.9 90.3 176.2 94.7 174.6C99.1 173 103.8 171.6 108.8 170.4C115 169 120.5 168.1 125.3 167.7C130.3 167.1 135.1 166.8 139.7 166.8C145.3 166.8 151.2 167.1 157.4 167.7C165 168.5 172.1 169.3 178.7 170.1C185.3 170.9 191.1 173 196.1 176.4C196.1 176.4 197.1 176.9 199.1 177.9C201.3 178.9 203.1 180.4 204.5 182.4C205.1 183.6 205.4 185.1 205.4 186.9C205.4 188.3 205.3 189.7 205.1 191.1C204.9 192.3 204.6 193.5 204.2 194.7C203.8 196.3 203.4 198.1 203 200.1C202.6 202.1 201.6 203.9 200 205.5C198.6 207.1 196.9 208.1 194.9 208.5C193.1 209.1 192 209.4 191.6 209.4Z" fill="black"/>
<path d="M120.25 23.25C126.25 22.25 132.75 22.3333 139.75 23.5C146.083 24.5 151.667 26.1667 156.5 28.5C160.833 30.6667 163.667 32.8333 165 35C168.667 40.5 169.417 47.5833 167.25 56.25C166.417 59.0833 165 61.5833 163 63.75C160.833 65.75 158.167 67.5833 155 69.25C151.333 71.25 147.667 72.25 144 72.25C142.167 72.25 140.833 71.5 140 70C139.5 69.1667 139.583 67.3333 140.25 64.5C142.083 58.3333 141.417 53.5 138.25 50C135.417 46.6667 128.417 44.25 117.25 42.75C115.75 42.5833 114.25 42.4167 112.75 42.25C105.25 41.9167 98.6667 43.4167 93 46.75C88.3333 49.5833 85.0833 54.25 83.25 60.75C82.4167 64.5833 82.4167 68.3333 83.25 72C84.5833 76.6667 87.0833 80.8333 90.75 84.5C94.9167 88.3333 101.917 92.75 111.75 97.75C119.75 101.75 125.833 105.083 130 107.75C142 115.583 149.083 124.417 151.25 134.25C151.917 138.917 151.833 143.5 151 148C149.833 153.833 147.333 159.75 143.5 165.75C133.5 180.75 118.083 191.75 97.25 198.75C92.0833 200.417 86.8333 201.75 81.5 202.75C76.3333 203.75 70.25 204.25 63.25 204.25C57.75 204.417 53 204.083 49 203.25C35.8333 200.417 25.3333 193.917 17.5 183.75C12 176.083 11 167.167 14.5 157C17.3333 148.167 22.4167 141.25 29.75 136.25C35.75 132.25 42 130 48.5 129.5C50.5 129.5 51.8333 129.667 52.5 130C54.8333 131.333 55.25 133.5 53.75 136.5C52.0833 140.167 48.5833 143.333 43.25 146L41.75 146.75L41 149.25C39.8333 152.917 39.5 156.083 40 158.75C40.1667 161.417 41 164 42.5 166.5C46.5 172.333 51.5833 176.75 57.75 179.75C68.25 184.583 79.6667 186 92 184C109.5 180.833 120 172.5 123.5 159C126 149.5 123.417 140.833 115.75 133C110.417 127.833 101.917 122.417 90.25 116.75C83.0833 113.083 79.4167 111.25 79.25 111.25C62.75 101.583 54.75 90.1667 55.25 77C55.4167 72 56.8333 66.75 59.5 61.25C65.5 49.25 76.1667 39.4167 91.5 31.75C101.167 27.0833 110.75 24.25 120.25 23.25Z" fill="black"/>
</svg>
